<svg width="200" height="31" viewBox="0 0 200 31" fill="none" xmlns="http://www.w3.org/2000/svg"><path d="M199.127 25.8803C197.077 28.5394 193.768 30.0212 190.135 30.0212H163.686C161.941 30.0212 160.418 28.6003 160.418 26.7734V3.30862C160.418 1.48178 161.88 0 163.686 0H190.135C193.748 0 197.077 1.54267 199.127 4.20175C199.594 4.7904 200 5.50084 200 6.45486C200 8.2817 198.539 9.76348 196.732 9.76348C195.392 9.76348 194.398 8.80946 193.87 8.05842C192.652 6.35337 189.607 5.33845 186.989 5.33845H170.283C168.416 5.33845 166.893 6.88112 166.893 8.76886C166.893 10.6566 168.477 12.179 170.344 12.179H187.76C189.283 12.179 191.15 13.2345 191.15 15.0816C191.15 16.9085 189.222 17.9234 187.76 17.9234H170.283C168.416 17.9234 166.893 19.4661 166.893 21.3538C166.893 23.2415 168.456 24.7842 170.324 24.7842H187.029C189.587 24.7842 192.632 23.7693 193.85 22.0642C194.377 21.2929 195.372 20.3592 196.712 20.3592C198.518 20.3592 199.98 21.841 199.98 23.6678C200 24.5812 199.594 25.2714 199.127 25.8803Z" fill="#52CAF5"></path><path d="M33.0253 30.0009H8.68767C3.91757 30.0009 0 26.0427 0 21.2117V3.30862C0 1.48178 1.46148 0 3.26803 0C5.07457 0 6.53605 1.48178 6.53605 3.30862V19.8517C6.53605 22.5108 8.80946 24.7639 11.4888 24.7639H30.2851C32.9644 24.7639 35.2378 22.5108 35.2378 19.8517V3.30862C35.2378 1.48178 36.6993 0 38.5059 0C40.3124 0 41.713 1.48178 41.713 3.30862V21.2117C41.7333 26.0427 37.8157 30.0009 33.0253 30.0009Z" fill="#FFFFFF"></path><path d="M84.7459 18.1873C84.4008 18.37 84.1572 18.7759 84.1572 19.2022C84.1572 19.4458 84.3399 19.7299 84.5632 19.9735L88.9882 24.3377C92.0939 27.3621 87.5268 32.0713 84.5023 29.128L75.5305 20.3795C74.7794 19.6082 73.7848 19.2022 72.6684 19.2022H58.1551C56.2877 19.2022 54.8262 20.7246 54.8262 22.6326V26.7126C54.8262 28.5394 53.3647 30.0212 51.5582 30.0212C49.7516 30.0212 48.2902 28.5394 48.2902 26.7126V3.30862C48.3105 1.48178 49.7516 0 51.5582 0H80.5238C85.7608 0 89.9626 4.26264 89.9626 9.5605C89.9828 13.3563 87.8312 16.604 84.7459 18.1873ZM79.306 5.31815H58.1551C56.2877 5.31815 54.8262 6.86082 54.8262 8.74856V10.5145C54.8262 12.4023 56.3486 13.9449 58.216 13.9449L79.2451 13.884C81.5794 13.884 83.5077 11.9963 83.5077 9.62139C83.5077 7.26679 81.6403 5.31815 79.306 5.31815Z" fill="#FFFFFF"></path><path d="M128.752 30.0018H99.0354C97.2897 30.0018 95.8282 28.5809 95.8282 26.754V3.37039C95.8282 1.54354 97.2288 0.0617676 99.0354 0.0617676H126.012C130.741 0.0617676 134.699 3.83725 134.699 8.68854C134.699 10.3936 134.233 11.9363 133.421 13.2354C133.36 13.3571 133.299 13.4789 133.299 13.5804C133.299 13.7631 133.421 13.9864 133.644 14.1691C135.917 15.7118 137.379 18.3708 137.379 21.3141C137.399 26.1045 133.482 30.0018 128.752 30.0018ZM124.855 5.31903L105.673 5.37992C103.805 5.37992 102.283 6.92259 102.283 8.81033C102.283 10.6981 103.805 12.1798 105.673 12.1798H124.855C126.722 12.1798 128.224 10.6372 128.224 8.74944C128.224 6.8617 126.722 5.31903 124.855 5.31903ZM127.473 17.9649H105.693C103.826 17.9649 102.303 19.5075 102.303 21.3953C102.303 23.283 103.826 24.7648 105.693 24.7648H127.473C129.341 24.7648 130.904 23.2221 130.904 21.3344C130.924 19.4263 129.341 17.9649 127.473 17.9649Z" fill="#FFFFFF"></path><path d="M152.847 17.8227H144.403C142.901 17.8227 141.602 16.5033 141.602 14.9809C141.602 13.4585 142.759 12.1392 144.342 12.1392H152.786C154.288 12.1392 155.587 13.3774 155.587 14.9809C155.587 16.5033 154.43 17.8227 152.847 17.8227Z" fill="#FFFFFF"></path></svg>