<svg width="26" height="28" fill="#52caf5" xmlns="http://www.w3.org/2000/svg">
    <path fill-rule="evenodd" clip-rule="evenodd" d="M8 11.5h13.75c2.125 0 3.75 1.625 3.75 3.75V24c0 2.125-1.625 3.75-3.75 3.75H4.25C2.125 27.75.5 26.125.5 24v-8.75c0-2.125 1.625-3.75 3.75-3.75H5.5V7.75c0-2 .75-3.875 2.25-5.25C9.125 1 11 .25 13 .25c3.5 0 6.625 2.5 7.375 6a1.297 1.297 0 01-1 1.5c-.625.125-1.375-.375-1.5-1-.5-2.375-2.5-4-4.875-4-1.375 0-2.625.5-3.5 1.5-1 .875-1.5 2.125-1.5 3.5v3.75zm13.75 13.75c.75 0 1.25-.5 1.25-1.25v-8.75c0-.75-.5-1.25-1.25-1.25H4.25C3.5 14 3 14.5 3 15.25V24c0 .75.5 1.25 1.25 1.25h17.5z" fill="#231F1F"/>
</svg>
