<svg viewBox="0 0 1440 750" preserveAspectRatio="xMidYMax meet" fill="none" xmlns="http://www.w3.org/2000/svg">
<mask id="mask0" mask-type="alpha" maskUnits="userSpaceOnUse" x="0" y="0" width="1440" height="750">
<rect width="1440" height="750" fill="url(#paint0_linear)"/>
</mask>
<g mask="url(#mask0)">
<path d="M717.572 1352.88C650.944 1321.33 589.91 1261.95 535.809 1175.9C433.257 1004.18 366.774 843.843 313.512 715.106C304.906 694.365 296.818 674.818 288.795 655.708C229.228 511.385 182.645 415.755 120.941 353.206C59.0083 287.703 -17.9641 259.115 -91.6565 235.331C-96.4563 233.736 -101.093 232.082 -105.782 230.539C-173.539 207.669 -237.545 186.033 -226.916 129.823L-226.532 129.869C-237.114 185.695 -173.219 207.279 -105.683 230.044C-100.994 231.587 -96.2467 233.293 -91.5575 234.836C-55.32 246.439 -16.6883 259.854 20.5287 278.832C60.4603 299.23 93.461 323.393 121.15 352.763C182.966 415.365 229.496 511.105 289.004 655.266C296.917 674.323 305.115 693.922 313.721 714.663C367.153 843.616 433.525 1003.9 536.077 1175.62C595.223 1269.61 657.567 1323.66 717.555 1352.06C793.701 1388.12 866.003 1382.79 923.421 1365.4C1021.52 1334.21 1115.29 1257.21 1201.99 1136.49C1264.26 1049.04 1306.09 963.572 1336.58 901.184C1339.42 895.482 1342.09 889.837 1344.77 884.466C1351.32 870.631 1357.29 858.014 1362.53 846.946C1381.98 806.159 1393.73 781.641 1391.36 778.35L1391.74 778.123C1394.22 781.74 1383.11 804.93 1362.92 847.267C1357.63 858.445 1351.55 871.01 1345.16 884.787C1342.48 890.157 1339.7 895.75 1336.97 901.505C1306.37 963.84 1264.6 1049.2 1202.38 1136.81C1163.5 1190.89 1123.06 1236.51 1082.2 1272.44C1031.34 1317.19 977.95 1348.68 923.543 1366C857.255 1386.1 793.339 1384.02 733.335 1359.94C728.028 1357.7 722.774 1355.35 717.572 1352.88Z" fill="#6A809B"/>
<path d="M723.494 1332.65C658.415 1301.84 598.313 1245.06 544.585 1163.66C439.565 996.867 370.472 840.039 315.026 714.197C306.502 694.714 298.275 676.321 290.333 658.469C228.308 517.047 180.171 422.984 118.303 360.493C56.6565 295.532 -19.7046 264.794 -92.5644 238.966C-96.4847 237.516 -100.405 236.066 -104.325 234.616C-171.913 209.387 -235.803 185.503 -225.385 127.161L-224.89 127.26C-235.15 185.27 -171.482 209.049 -104.168 234.284C-100.248 235.734 -96.3274 237.184 -92.4072 238.634C-19.4367 264.514 56.9244 295.253 118.682 360.266C180.66 422.809 228.635 516.93 290.77 658.405C298.822 676.309 306.886 694.761 315.463 714.133C370.909 839.975 440.054 996.692 545.022 1163.6C603.562 1252.29 664.817 1304.06 723.587 1331.88C801.282 1368.67 874.796 1363.65 932.709 1346.36C1031.25 1315.65 1121.41 1243.44 1208.33 1125.4C1269.79 1041.09 1310.87 959.197 1340.98 899.338C1343.71 893.856 1346.34 888.596 1348.91 883.446C1355.2 870.439 1361.03 858.427 1366.17 847.855C1385.22 808.774 1396.76 785.246 1394.5 782.008L1394.88 781.78C1397.31 785.234 1386.45 807.597 1366.56 848.175C1361.42 858.748 1355.54 870.596 1349.3 883.767C1346.73 888.916 1344.1 894.176 1341.37 899.658C1311.32 959.407 1270.18 1041.41 1208.72 1125.72C1169.75 1178.54 1130.95 1221.27 1090.08 1256.38C1039.67 1299.59 986.918 1330.02 932.884 1346.85C867.02 1366.33 803.274 1364.47 743.398 1341.27C736.658 1338.62 730.024 1335.75 723.494 1332.65Z" fill="#6A809B"/>
<path d="M729.088 1312.54C665.67 1282.51 606.558 1228.51 553.257 1151.64C445.65 989.451 373.844 836.352 316.156 713.242C307.661 695.128 299.737 678.097 291.766 661.451C227.168 522.604 177.586 430.16 115.555 367.728C54.0304 303.367 -18.5156 271.726 -93.6417 242.385C-96.7931 241.028 -99.9969 239.782 -103.038 238.478C-170.457 210.89 -234.12 184.81 -224.081 124.12L-223.585 124.219C-233.578 184.524 -170.137 210.5 -102.88 238.146C-99.729 239.503 -96.6358 240.696 -93.4845 242.053C-52.2196 258.205 -17.8922 272.698 15.7018 291.315C55.1735 313.257 87.9704 338.136 115.933 367.501C177.964 429.933 227.546 522.377 292.308 661.166C300.226 677.923 308.261 695.006 316.698 712.956C374.386 836.066 446.192 989.166 553.688 1151.31C611.621 1234.7 671.512 1284.19 729.065 1311.44C808.421 1349.02 883.198 1344.19 941.775 1327.21C1039.3 1297.51 1128.47 1227.95 1214.39 1114.31C1275.04 1033.15 1315.43 954.717 1344.99 897.444C1347.68 892.347 1350.2 887.308 1352.73 882.543C1358.82 870.252 1364.44 858.957 1369.43 848.99C1388.23 811.558 1399.47 788.968 1397.32 785.782L1397.7 785.555C1400.07 788.845 1389.36 810.329 1369.87 849.2C1364.88 859.167 1359.26 870.462 1353.17 882.753C1350.64 887.518 1348.12 892.557 1345.43 897.654C1315.88 954.927 1275.43 1033.47 1214.78 1114.63C1176.32 1165.52 1138.04 1206.6 1097.62 1240.45C1047.84 1282.05 995.448 1311.44 941.95 1327.7C876.623 1346.63 813.208 1344.92 753.297 1322.65C745.125 1319.59 737.057 1316.31 729.088 1312.54Z" fill="#6A809B"/>
<path d="M734.462 1292.32C672.704 1263.08 614.856 1211.84 561.981 1139.52C451.567 981.82 376.931 832.122 317 711.744C308.704 695.215 300.92 679.606 293.305 664.212C226.027 528.161 174.89 437.284 112.865 375.125C51.795 311.522 -20.1921 277.842 -94.7128 246.078C-97.037 244.978 -99.4137 243.988 -101.738 242.887C-168.884 212.719 -232.267 184.332 -222.607 121.295L-222.112 121.394C-231.726 184.046 -168.616 212.439 -101.639 242.392C-99.3147 243.493 -96.9381 244.482 -94.6138 245.583C-19.9825 277.399 51.9523 311.19 113.133 374.846C175.269 437.057 226.353 528.044 293.794 664.037C301.461 679.32 309.245 694.929 317.49 711.57C377.42 831.947 452.057 981.645 562.359 1139.29C619.412 1217.38 677.94 1264.61 734.164 1291.23C815.291 1329.65 891.444 1325.06 950.685 1308.4C1047.3 1279.76 1135.54 1212.74 1220.3 1103.56C1280.14 1025.53 1319.89 950.459 1348.9 895.772C1351.48 890.896 1353.95 886.242 1356.38 881.698C1362.26 870.123 1367.73 859.434 1372.57 850.073C1391.03 814.237 1402.07 792.637 1399.98 789.614L1400.41 789.276C1402.78 792.567 1392.84 811.842 1373.01 850.283C1368.18 859.644 1362.71 870.333 1356.82 881.908C1354.4 886.451 1351.92 891.106 1349.4 895.871C1320.44 950.721 1280.69 1025.8 1220.74 1103.77C1182.79 1152.73 1145.01 1192.16 1105.12 1224.62C1055.91 1264.73 1004.04 1293.01 950.912 1308.77C886.009 1327.09 822.816 1325.49 763.092 1304.25C753.539 1300.68 743.869 1296.78 734.462 1292.32Z" fill="#6A809B"/>
<path d="M739.34 1272C679.353 1243.6 622.77 1195.13 570.704 1127.39C457.484 974.188 379.959 827.73 317.676 710.032C309.851 695.081 302.265 681.056 294.901 667.136C224.886 533.718 172.194 444.408 110.175 382.523C49.6178 319.84 -18.828 285.262 -95.7315 249.661L-100.38 247.459C-167.305 214.821 -230.468 183.965 -221.023 118.522L-220.528 118.621C-229.926 183.679 -166.874 214.483 -100.17 247.017L-95.5219 249.218C-18.6184 284.82 49.9381 319.45 110.606 382.185C172.625 444.071 225.428 533.432 295.443 666.85C302.807 680.77 310.34 694.906 318.218 709.746C380.501 827.444 458.026 973.903 571.246 1127.1C684.558 1274.38 815.332 1328.99 959.862 1289.3C1055.46 1261.67 1142.71 1197.3 1226.63 1092.47C1285.78 1017.63 1324.89 945.915 1353.34 893.54C1355.88 889.049 1358.2 884.727 1360.51 880.404C1366.2 869.546 1371.51 859.463 1376.2 850.707C1394.31 816.467 1405.21 795.747 1403.17 792.887L1403.6 792.549C1405.92 795.677 1396.12 814.073 1376.64 850.917C1372.01 859.836 1366.64 869.756 1360.96 880.614C1358.69 884.826 1356.21 889.206 1353.79 893.75C1325.33 946.124 1286.22 1017.84 1227.07 1092.68C1189.57 1139.55 1152.2 1177.54 1112.94 1208.68C1064.19 1247.24 1012.79 1274.53 960.2 1289.73C895.722 1307.44 832.861 1305.99 773.155 1285.58C761.679 1281.77 750.408 1277.24 739.34 1272Z" fill="#6A809B"/>
<path d="M743.944 1251.69C685.839 1224.18 630.631 1178.53 579.376 1115.37C462.958 966.347 382.486 822.965 317.792 707.783C310.445 694.684 303.494 682.18 296.55 669.949C223.687 539.111 169.382 451.206 107.537 389.81C42.9546 323.324 -31.2465 286.021 -96.6981 253.132L-98.97 251.921C-165.785 216.76 -228.726 183.434 -219.608 115.533L-219.113 115.632C-228.237 183.259 -165.354 216.422 -98.9234 251.536L-96.6516 252.747C-31.0892 285.689 43.1118 322.992 107.805 389.531C169.76 450.979 224.118 538.774 296.928 669.721C303.873 681.952 310.824 694.457 318.281 707.608C382.976 822.79 463.448 966.172 579.807 1115.03C631.51 1178.67 686.444 1224.33 744.218 1251.69C814.831 1285.12 889.849 1291.51 968.661 1270.43C1063.35 1243.86 1149.62 1182.14 1232.43 1081.66C1290.81 1009.86 1329.12 941.551 1357.25 891.594C1359.62 887.435 1361.84 883.334 1364.11 879.396C1369.59 869.254 1374.7 859.887 1379.18 851.575C1396.99 818.82 1407.8 799.142 1405.77 796.282L1406.2 795.944C1408.4 799.02 1398.86 816.588 1379.62 851.784C1375.14 860.097 1370.03 869.464 1364.55 879.606C1362.28 883.543 1360.07 887.644 1357.69 891.804C1329.67 941.813 1291.2 1010.18 1232.82 1081.98C1195.82 1126.93 1158.85 1163.21 1120.05 1193.08C1071.88 1230.15 1020.89 1256.28 968.725 1270.87C904.725 1287.85 842.143 1286.67 782.565 1267.13C769.656 1262.92 756.672 1257.72 743.944 1251.69Z" fill="#6A809B"/>
<path d="M747.943 1231.23C691.829 1204.66 638.212 1161.66 587.93 1103.03C468.153 958.239 384.513 817.827 317.296 705.11C310.707 694.131 304.339 683.257 297.925 672.768C220.227 541.267 166.412 458.336 104.574 397.214C41.2317 332.399 -29.4863 294.036 -97.9907 256.72L-98.1014 256.668C-130.099 238.4 -163.152 219.498 -186.204 196.93C-212.11 171.52 -222.272 144.623 -218.304 112.493L-217.698 112.644C-226.548 182.84 -164.049 218.531 -97.8918 256.225L-97.7811 256.278C-29.2243 293.482 41.552 332.009 104.894 396.824C166.843 457.998 220.658 540.929 298.303 672.541C304.665 683.141 311.086 693.904 317.675 704.883C384.891 817.6 468.531 958.011 588.198 1102.75C704.27 1238.19 835.165 1288.25 977.348 1251.51C1071.02 1225.95 1156.41 1166.94 1238.22 1070.86C1295.91 1002.24 1333.63 937.182 1361.15 889.648C1363.42 885.71 1365.59 881.994 1367.7 878.388C1372.98 868.963 1377.77 860.26 1382.1 852.553C1399.62 821.283 1410.33 802.374 1408.3 799.789L1408.74 799.451C1410.88 802.363 1401.38 819.273 1382.49 852.873C1378.16 860.58 1373.26 869.23 1368.09 878.708C1365.98 882.314 1363.76 886.141 1361.54 889.968C1334.02 937.502 1296.25 1002.67 1238.56 1071.29C1201.95 1114.25 1165.56 1149.05 1127.17 1177.48C1079.5 1212.9 1029.1 1238.08 977.36 1252.06C913.785 1268.43 851.425 1267.36 792.085 1248.74C777.523 1244.02 762.663 1238.2 747.943 1231.23Z" fill="#6A809B"/>
<path d="M751.505 1210.83C697.494 1185.26 645.526 1145.07 596.549 1091.12C473.132 950.299 386.213 812.806 316.417 702.39C310.8 693.362 305.19 684.608 299.69 675.907C231.513 566.935 169.594 471.36 102.052 404.827C40.3419 342.004 -27.1668 302.586 -92.293 264.432L-98.8406 260.518C-160.955 222.299 -225.121 182.974 -216.446 109.714L-215.788 109.755C-224.416 182.63 -160.472 221.851 -98.5261 259.854L-91.9261 263.657C-26.6892 301.864 40.8195 341.282 102.641 404.157C170.182 470.69 232.101 566.266 300.389 675.29C305.889 683.991 311.499 692.745 317.116 701.772C386.912 812.188 473.831 949.681 597.248 1090.5C714.618 1220.06 845.629 1267.86 986.694 1232.63C1079.4 1208.24 1163.87 1151.77 1244.72 1059.98C1301.77 994.45 1338.79 932.58 1365.81 887.521C1367.93 883.916 1369.99 880.42 1372.11 877.088C1377.18 868.38 1381.83 860.282 1386 853.182C1403.33 823.449 1413.79 805.368 1411.88 802.834L1412.31 802.497C1414.39 805.246 1405.1 821.44 1386.45 853.391C1382.27 860.492 1377.62 868.589 1372.55 877.298C1370.54 880.682 1368.48 884.178 1366.31 887.62C1339.23 932.789 1302.21 994.659 1245.17 1060.19C1164.2 1151.92 1079.68 1208.51 986.811 1232.96C923.772 1248.77 861.685 1247.69 802.364 1229.9C785.063 1225.23 768.107 1218.69 751.505 1210.83Z" fill="#6A809B"/>
<path d="M754.35 1190.23C702.553 1165.7 652.618 1128.37 605.052 1078.89C477.662 941.876 387.295 807.086 314.75 698.756C310.223 692.006 305.697 685.255 301.228 678.668C227.64 567.676 166.112 477.57 99.3625 412.226C39.6211 351.826 -24.3987 311.62 -86.1991 272.737C-90.8069 269.878 -95.3622 266.908 -99.97 264.049C-133.53 241.925 -162.942 221.63 -184.165 197.489C-208.475 169.854 -218.422 140.214 -214.758 106.721L-214.099 106.761C-222.395 182.368 -157.163 225.45 -99.5449 263.437C-94.9371 266.296 -90.3818 269.266 -85.774 272.126C-23.8629 311.061 40.0462 351.214 99.8984 411.666C166.595 477.121 228.234 567.28 301.822 678.272C306.291 684.859 310.818 691.61 315.344 698.36C387.89 806.69 478.309 941.369 605.698 1078.38C653.433 1128.08 703.258 1165.36 754.723 1189.73C831.201 1225.94 911.625 1234.08 995.225 1214.05C1087.03 1190.72 1170.5 1136.89 1250.36 1049.51C1306.65 987.005 1343.08 928.38 1369.66 885.686C1371.73 882.465 1373.64 879.302 1375.65 876.191C1380.41 868.147 1384.85 860.766 1388.82 854.108C1405.9 825.75 1416.16 808.659 1414.31 806.289L1414.74 805.951C1416.76 808.537 1408.83 821.853 1389.16 854.539C1385.19 861.197 1380.75 868.578 1375.88 876.57C1374.03 879.622 1371.96 882.844 1370 886.117C1343.37 928.921 1306.93 987.547 1250.65 1050.05C1170.63 1137.49 1087.1 1191.43 995.184 1214.7C932.512 1229.74 870.758 1228.82 811.564 1211.9C792.382 1206.34 773.276 1199.19 754.35 1190.23Z" fill="#6A809B"/>
<path d="M756.537 1169.58C707.286 1146.26 659.716 1111.95 613.665 1066.7C481.919 933.458 387.825 801.104 312.257 694.865L302.714 681.539C223.33 568.48 162.076 483.517 96.5617 419.571C39.1213 361.751 -21.124 321.3 -79.4238 282.178C-86.7054 277.239 -93.9288 272.464 -101.1 267.578C-132.469 245.408 -162.301 223.424 -183.396 197.582C-207.02 168.782 -216.716 138.04 -213.232 103.784L-212.574 103.825C-220.002 176.455 -168.639 219.068 -100.727 267.077C-93.5561 271.963 -86.3327 276.738 -79.0511 281.677C-20.7513 320.799 39.4941 361.25 97.0451 419.122C162.559 483.069 223.813 568.032 303.308 681.143L312.851 694.469C388.419 800.708 482.402 933.01 614.148 1066.26C660.089 1111.45 707.821 1145.7 756.852 1168.92C835.765 1206.29 918.396 1215.2 1003.92 1195.4C1094.81 1173.13 1177.31 1121.95 1256.16 1038.97C1311.8 979.554 1347.65 924.173 1373.73 883.682C1375.64 880.792 1377.44 877.851 1379.3 875.072C1383.8 867.855 1387.93 861.138 1391.79 854.975C1408.64 827.992 1418.8 811.67 1417.06 809.352L1417.65 808.956C1419.57 811.489 1411.79 824.2 1392.35 855.237C1388.53 861.289 1384.4 868.006 1379.85 875.334C1377.99 878.113 1376.19 881.055 1374.28 883.944C1348.2 924.435 1312.3 979.927 1256.66 1039.35C1177.59 1122.5 1094.93 1173.73 1003.93 1195.95C918.356 1215.86 835.561 1207 756.537 1169.58Z" fill="#6A809B"/>
<path d="M757.787 1148.63C711.302 1126.62 666.098 1095.33 622.115 1054.58C485.622 924.779 387.637 794.918 308.93 690.445L304.363 684.353C228.108 581.853 162.235 493.484 93.8718 426.969C39.0706 372.16 -17.2256 331.953 -71.6868 293.023C-81.7006 285.842 -92.1571 278.452 -102.118 271.161C-131.35 249.054 -161.549 225.27 -182.406 197.78C-205.453 167.763 -214.952 136.031 -211.543 100.79L-210.885 100.831C-218.039 176.03 -165.668 222.236 -101.746 270.66C-91.7844 277.951 -81.3279 285.341 -71.3141 292.522C-16.8529 331.452 39.5539 371.711 94.3552 426.52C162.771 492.924 228.591 581.405 304.846 683.904L309.413 689.996C388.284 794.411 486.106 924.33 622.651 1054.02C743.699 1166.08 874.954 1207.36 1012.61 1176.75C1102.54 1155.66 1184.22 1107.07 1262.12 1028.38C1317.17 971.935 1352.32 919.746 1378.01 881.509C1379.82 878.841 1381.57 876.284 1383.16 873.784C1387.35 867.231 1391.27 861.231 1394.88 855.621C1411.52 829.903 1421.71 814.401 1420.02 812.246L1420.61 811.85C1422.53 814.384 1414.1 827.328 1395.54 855.936C1391.99 861.435 1388.06 867.435 1383.82 874.099C1382.12 876.546 1380.37 879.103 1378.67 881.823C1352.98 920.061 1317.78 972.36 1262.74 1028.81C1184.67 1107.55 1102.83 1156.2 1012.9 1177.3C924.743 1196.93 839.467 1187.31 757.787 1148.63Z" fill="#6A809B"/>
<path d="M758.209 1127.42C714.713 1106.83 672.2 1078.43 630.617 1042.35C488.668 916.059 387.404 789.116 305.959 687.276L299.428 679.035C219.417 577.602 156.183 497.393 91.0771 434.588C39.4741 383.326 -12.6456 343.742 -63.0352 305.655C-77.0103 295.108 -90.1523 285.092 -103.353 274.912C-131.67 252.019 -161.013 227.285 -181.742 198.094C-203.833 166.632 -213.134 133.91 -209.854 97.7961L-209.196 97.8367C-216.181 175.825 -165.196 223.814 -102.764 274.242C-89.5641 284.422 -76.4221 294.439 -62.447 304.985C-11.9991 343.235 40.173 382.708 91.776 433.97C156.83 496.886 220.063 577.096 300.185 678.581L306.716 686.822C388.108 788.773 489.425 915.604 631.211 1041.95C753.558 1148.12 884.714 1187.33 1021.31 1158.38C1110.33 1138.34 1190.97 1092.52 1268.04 1018.18C1322.44 964.81 1356.99 915.592 1382.24 879.72C1383.89 877.384 1385.54 875.048 1387.14 872.823C1391.12 866.986 1394.78 861.539 1398.13 856.483C1414.64 832.191 1424.62 817.406 1422.99 815.414L1423.59 815.018C1425.44 817.389 1417.11 829.837 1398.74 856.908C1395.34 861.801 1391.67 867.248 1387.75 873.248C1386.15 875.473 1384.56 877.698 1382.86 880.145C1357.61 916.017 1323.16 965.288 1268.6 1018.71C1191.48 1093.17 1110.52 1139.11 1021.49 1159.14C930.915 1178.17 842.877 1167.52 758.209 1127.42Z" fill="#6A809B"/>
<path d="M757.478 1106.08C717.302 1087.05 677.76 1061.83 639.067 1030.23C491.55 907.397 385.329 781.766 307.608 690.089C299.4 680.241 291.36 670.608 283.379 661.138C208.384 571.43 149.183 500.446 88.4978 442.038C40.7048 394.748 -6.99952 356.713 -53.032 320.012C-70.8112 305.767 -87.6408 292.378 -104.371 278.494C-162.917 227.874 -214.975 175.854 -208.166 94.8018L-207.397 94.8949C-214.159 175.563 -162.213 227.53 -103.836 277.935C-87.2156 291.766 -70.386 305.155 -52.4962 319.452C-6.51611 356.264 41.1882 394.299 88.9812 441.589C149.666 499.997 208.92 570.87 283.973 660.742C291.954 670.212 299.994 679.845 308.202 689.693C385.812 781.317 492.033 906.948 639.44 1029.73C762.869 1130.17 894.2 1167.29 1029.68 1139.85C1117.74 1120.98 1197.56 1077.75 1273.79 1007.76C1327.54 957.471 1361.45 911.334 1386.2 877.663C1387.74 875.548 1389.23 873.545 1390.72 871.541C1394.39 866.368 1397.74 861.585 1400.93 857.135C1416.78 834.829 1427.15 820.091 1425.68 818.315L1426.28 817.919C1428.08 820.126 1421.33 829.802 1401.49 857.67C1398.3 862.121 1394.95 866.903 1391.28 872.076C1389.79 874.08 1388.3 876.084 1386.76 878.199C1362.01 911.87 1328.1 958.006 1274.18 1008.35C1197.9 1078.46 1118.03 1121.8 1029.86 1140.61C936.702 1159.37 845.467 1147.74 757.478 1106.08Z" fill="#6A809B"/>
<path d="M755.704 1084.64C719.07 1067.3 682.825 1045.12 647.354 1018.16C505.972 908.129 402.805 797.223 309.204 693.013C293.265 675.169 278.159 657.854 263.397 641.243C197.823 566.836 141.069 502.701 85.8136 449.71C42.448 407.09 -0.165124 371.466 -41.386 336.908C-63.6975 318.214 -84.8381 300.48 -105.443 282.187C-132.601 257.133 -160.523 229.685 -179.761 198.49C-200.7 164.593 -209.39 129.722 -206.477 91.8078L-205.708 91.9009C-212.191 175.411 -159.556 231.362 -104.907 281.628C-84.3023 299.921 -63.22 317.491 -40.9085 336.186C0.312377 370.744 42.8732 406.479 86.2911 448.987C141.657 502.031 198.359 566.276 263.985 640.574C278.695 657.294 293.964 674.551 309.793 692.343C403.394 796.553 506.508 907.57 647.884 1017.33C772.559 1112 903.79 1147.04 1038.21 1121.26C1125.31 1103.57 1204.25 1063.04 1279.54 997.336C1332.81 950.073 1366.07 907.017 1390.32 875.548L1394.48 870.201C1397.78 865.802 1400.86 861.573 1403.74 857.787C1419.45 836.635 1429.83 822.718 1428.48 820.994L1429.13 820.487C1430.87 822.531 1424.16 831.823 1404.35 858.212C1401.42 862.109 1398.39 866.228 1395.09 870.626L1390.93 875.973C1366.68 907.442 1333.31 950.445 1279.98 997.82C1204.65 1063.63 1125.54 1104.22 1038.28 1121.97C977.943 1133.51 917.564 1132.83 858.895 1119.95C824.283 1112.64 789.904 1100.84 755.704 1084.64Z" fill="#6A809B"/>
<path d="M752.055 1062.59C719.626 1047.23 687.395 1028.31 655.746 1005.88C508.97 899.793 400.684 790.257 310.853 695.827C285.517 668.926 261.801 643.469 239.035 618.868C181.506 556.942 131.831 503.611 83.1236 457.108C45.1351 420.015 8.0152 387.67 -27.7707 356.227C-55.3486 332.058 -81.4176 309.281 -106.409 285.659C-159.725 233.722 -211.037 175.551 -204.736 88.703L-203.967 88.7961C-210.274 175.37 -159.078 233.215 -106.036 285.158C-81.0449 308.78 -54.9759 331.557 -27.3457 355.615C8.49269 386.947 45.5602 419.403 83.5487 456.496C132.256 503 181.99 556.493 239.46 618.257C262.389 642.799 285.995 668.203 311.278 695.215C401.162 789.534 509.285 899.129 656.113 1005.1C687.651 1027.49 719.55 1046.25 751.868 1061.55C847.937 1107.04 946.727 1121.03 1046.47 1102.95C1132.61 1086.43 1210.74 1048.49 1285.07 987.084C1337.75 942.791 1370.41 902.706 1394.22 873.602L1398.01 869.029C1401 865.295 1403.77 861.73 1406.33 858.334C1422 838.388 1432.46 825.181 1431.05 823.568L1431.7 823.061C1433.33 825.053 1427.04 833.185 1406.94 858.759C1404.32 861.992 1401.55 865.557 1398.62 869.454L1394.83 874.027C1370.97 903.242 1338.31 943.327 1285.52 987.567C1211.02 1049.04 1132.9 1086.97 1046.6 1103.55C986.625 1114.32 926.578 1113.79 868.09 1101.68C829.307 1094.02 790.46 1080.78 752.055 1062.59Z" fill="#6A809B"/>
<path d="M746.425 1040.14C718.755 1027.04 691.365 1011.63 664.085 993.701C518.924 896.512 409.265 794.455 312.502 698.639C275.224 661.477 241.896 627.133 209.47 594.03C161.922 545.365 121.032 503.24 80.3288 464.727C48.7775 434.07 18.0538 406.243 -11.7728 379.384C-45.7355 348.669 -77.7467 319.555 -107.696 289.521C-131.901 264.239 -159.177 233.71 -178.002 198.781C-197.514 162.443 -205.756 125.481 -202.936 85.7612L-202.167 85.8543C-208.3 175.492 -156.299 237.647 -107.16 288.962C-77.2633 319.107 -45.1997 348.109 -11.237 378.824C18.4265 405.742 49.2609 433.621 80.8122 464.278C121.463 502.902 162.516 544.969 210.012 593.744C242.274 626.906 275.766 661.192 313.044 698.354C409.969 794.111 519.518 896.116 664.569 993.253C791.409 1076.48 922.715 1107.36 1054.96 1085.02C1140.25 1069.72 1217.39 1034.44 1290.89 977.373C1342.97 936.051 1376.38 897.539 1398.46 872.087L1401.77 868.236C1404.34 865.114 1406.79 862.213 1409.09 859.37C1424.79 840.519 1435.15 828.082 1433.91 826.684L1434.56 826.177C1436.24 828.058 1429.89 835.754 1409.76 859.958C1407.52 862.69 1405.01 865.702 1402.44 868.825L1399.13 872.675C1377 898.237 1343.59 936.75 1291.5 978.072C1217.85 1035.19 1140.54 1070.54 1055.2 1085.95C995.709 1095.99 935.825 1095.41 877.517 1084.06C833.673 1075.36 789.811 1060.69 746.425 1040.14Z" fill="#6A809B"/>
<path d="M738.209 1017.15C716.184 1006.72 694.182 994.809 672.372 981.637C521.544 888.404 406.602 787.774 314.046 701.674C262.28 653.044 215.611 607.099 174.594 566.675C140.572 533.223 108.508 501.646 77.6446 472.398C53.7598 449.3 30.2888 427.618 7.76148 406.518C-33.8211 367.859 -73.1143 331.233 -108.604 293.156C-132.058 267.146 -158.478 235.666 -176.959 198.868C-195.784 161.365 -203.665 123.354 -201.032 82.5977L-200.211 82.5802C-205.599 166.067 -167.269 226.762 -108.016 292.486C-72.5261 330.563 -33.1805 367.079 8.4021 405.738C30.9819 426.727 54.4005 448.52 78.2852 471.617C109.201 500.754 141.213 532.442 175.234 565.895C216.363 606.371 262.921 652.264 314.686 700.893C407.242 786.993 522.074 887.571 672.902 980.804C694.601 993.924 716.382 1005.73 738.185 1016.05C845.321 1066.78 954.311 1083.84 1063.39 1066.66C1147.72 1052.53 1224.03 1019.83 1296.69 967.115C1348.29 928.815 1381.06 893.385 1402.69 870.024L1405.69 866.838L1411.84 859.859C1427.14 842.714 1438.04 830.265 1436.98 829.083L1437.63 828.576C1439.25 830.294 1433.32 837.104 1412.51 860.447L1406.36 867.426L1403.36 870.612C1381.68 894.084 1348.91 929.514 1297.26 967.924C1224.55 1020.75 1148.12 1053.39 1063.63 1067.58C1004.5 1076.85 945.054 1076.2 886.875 1065.73C837.218 1056.71 787.46 1040.47 738.209 1017.15Z" fill="#6A809B"/>
<path d="M726.795 993.18C711.41 985.895 695.956 977.9 680.601 969.41C523.559 880.144 403.059 780.948 315.695 704.487C246.127 643.092 186.625 586.193 134.061 536.102C113.427 516.44 94.0218 497.903 74.9023 479.907C60.1928 465.761 45.5999 451.94 31.5661 438.656C-19.5355 390.341 -67.7885 344.594 -109.786 296.797C-159.573 238.265 -204.881 171.42 -199.343 79.6039L-198.411 79.6387C-203.955 171.181 -158.815 237.81 -109.25 296.237C-67.2527 344.035 -19.1104 389.729 31.9912 438.044C46.1356 451.381 60.6179 465.149 75.3275 479.295C94.4469 497.291 113.962 515.881 134.486 535.49C187.05 585.581 246.552 642.481 316.12 703.876C403.485 780.336 523.873 879.48 680.915 968.746C811.697 1041.65 939.397 1067.83 1071.33 1048.74C1154.81 1035.83 1230.25 1005.84 1302.01 957.305C1405.39 881.196 1439.06 831.559 1439.38 831.168L1440.1 831.646C1439.89 832.088 1405.47 882.454 1302.58 958.115C1230.66 1006.71 1155.1 1036.65 1071.46 1049.61C1012.81 1058.16 953.527 1057.45 895.581 1047.63C839.667 1038.09 783.019 1019.8 726.795 993.18Z" fill="#6A809B"/>
<path d="M711.251 968.206C703.725 964.642 696.251 960.968 688.83 957.183C526.359 872.799 404.888 779.376 317.344 707.301C226.496 631.9 153.047 563.248 88.2033 502.465C82.8904 497.374 77.5251 492.395 72.1598 487.416L61.1437 476.915C-4.72571 414.291 -61.5947 360.129 -110.916 300.327C-141.478 262.144 -161.263 230.961 -175.148 199.049C-192.546 159.105 -199.815 118.945 -197.387 76.3304L-196.455 76.3652C-201.765 171.135 -158.116 239.768 -110.106 299.762C-60.8958 359.511 -3.9744 413.563 61.895 476.187L72.9111 486.687C78.1658 491.614 83.5311 496.594 88.9546 501.736C153.851 562.41 227.247 631.172 318.095 706.572C405.692 778.537 527.111 872.071 689.47 956.402C821.283 1023.69 948.994 1047.86 1079.93 1030.59C1162.44 1018.85 1237.13 991.617 1308.05 947.426C1401.02 884.412 1436.21 841.59 1442.39 833.679C1442.66 833.399 1442.66 833.399 1442.66 833.399L1442.94 833.667L1443.33 833.987C1443.33 833.987 1443.28 834.098 1443.22 834.209C1437.04 842.12 1401.81 885.053 1308.66 948.125C1237.58 992.374 1162.85 1019.72 1080.17 1031.52C1021.06 1039.3 963.753 1038.72 905.108 1029.51C840.853 1019.28 775.887 998.812 711.251 968.206Z" fill="#6A809B"/>
<path d="M694.734 943.854C526.282 864.091 399.697 772.31 318.992 710.113C215.492 629.67 135.875 556.878 69.4756 495.087C3.50139 432.684 -60.0438 371.16 -112.039 304.13C-156.351 245.481 -200.868 172.101 -195.587 73.3882L-194.655 73.423C-199.942 171.862 -155.483 245.079 -111.393 303.623C-59.3973 370.653 4.03719 432.124 70.0114 494.527C136.411 556.319 215.97 628.948 319.528 709.554C400.122 771.699 526.707 863.479 695.048 943.19C695.823 943.557 696.598 943.924 697.373 944.291C830.157 1005.81 957.885 1028.22 1087.76 1012.62C1196.52 998.676 1268.5 963.117 1313.37 937.616C1400.08 883.829 1435.71 846.365 1444.58 836.206C1445.17 835.536 1445.17 835.536 1445.33 835.478L1445.46 836.351L1445.4 835.914L1445.68 836.182C1445.62 836.293 1445.41 836.462 1445.14 836.742C1436.38 846.954 1400.64 884.365 1313.71 938.321C1268.96 963.874 1196.7 999.439 1087.78 1013.44C1029.04 1020.45 972.056 1019.75 913.591 1011.31C842.324 1001 769.54 978.734 696.895 945.013C696.283 944.588 695.509 944.221 694.734 943.854Z" fill="#6A809B"/>
<path d="M637.092 902.198C529.624 851.311 427.525 790.229 320.589 713.037C209.353 632.048 126.48 558.12 66.6285 502.817C4.35352 444.333 -60.4501 380.317 -113.273 307.882C-141.232 268.493 -160.266 234.007 -173.33 199.503C-189.354 157.229 -196.012 114.919 -193.683 70.2253L-192.751 70.2601C-197.851 172.311 -155.051 247.316 -112.464 307.317C-59.7512 379.699 5.1631 443.768 67.3274 502.199C127.179 557.503 210.052 631.431 321.177 712.367C450.313 805.627 572.538 875.425 705.601 932.064C839.305 987.922 967.103 1008.47 1095.92 994.805C1203.51 982.477 1274.76 950.768 1319.02 927.964C1400.33 882.455 1435.57 850.367 1447.05 838.728C1448.12 837.609 1448.12 837.609 1448.45 837.767L1448.24 838.209L1448.47 838.588C1448.41 838.698 1448.04 838.926 1447.72 839.316C1436.35 851.008 1400.94 883.154 1319.43 928.832C1275.11 951.747 1203.75 983.403 1096 995.79C966.905 1009.46 839.107 988.912 705.182 932.949C682.237 923.033 659.56 912.837 637.092 902.198Z" fill="#6A809B"/>
<path d="M581.286 864.392C493.407 822.78 407.835 773.725 322.296 716.013C230.186 653.294 148.21 588.056 64.0025 510.651C-16.4306 435.576 -71.4832 374.144 -114.397 311.685C-152.994 253.845 -196.779 173.767 -191.831 67.1728L-190.899 67.2076C-195.853 173.528 -152.237 253.391 -113.588 311.12C-70.7843 373.526 -15.7899 434.795 64.6432 509.871C148.688 587.334 230.826 652.513 322.826 715.18C450.662 801.456 578.467 868.341 713.719 919.784C848.453 970.033 976.047 988.718 1103.97 976.94C1210.23 966.283 1280.79 938.314 1324.57 918.259C1380.45 890.385 1424.77 862.869 1449.45 840.813C1450.9 839.467 1451.06 839.409 1451.45 839.729L1451.13 840.119L1451.3 840.609C1451.14 840.667 1450.66 841.115 1450.17 841.564C1425.5 863.62 1381.01 891.195 1325.13 919.068C1281.3 939.234 1210.75 967.203 1104.21 977.866C976.123 989.702 848.366 971.075 713.574 920.663C668.674 903.603 624.671 884.935 581.286 864.392Z" fill="#6A809B"/>
<path d="M517.179 825.229C449.776 793.313 385.699 758.094 323.951 719.1C208.837 646.301 123.139 573.474 61.208 518.27C-16.586 446.206 -72.7459 381.675 -115.579 315.326C-141.097 274.789 -159.381 237.001 -171.408 199.735C-185.947 155.184 -191.883 110.777 -189.874 63.8988L-188.942 63.9336C-192.687 149.96 -169.832 227.31 -114.769 314.761C-72.047 381.058 -15.9454 445.425 61.8486 517.49C198.73 639.889 397.551 794.87 721.674 907.562C857.275 952.26 984.887 969.192 1111.86 959.132C1216.9 950.199 1286.61 926.028 1329.95 908.612C1367.88 892.024 1419.88 867.191 1451.57 842.903C1453.24 841.662 1453.35 841.441 1453.68 841.598L1453.9 841.703L1454.07 841.918L1453.69 842.146L1453.87 842.635C1453.7 842.693 1453.06 843.2 1452.25 843.765C1420.51 868.164 1368.51 892.996 1330.41 909.643C1287.07 927.059 1217.25 951.178 1112.05 960.169C984.962 970.176 857.241 953.192 721.476 908.552C649.729 883.522 581.925 855.887 517.179 825.229Z" fill="#6A809B"/>
<path d="M460.068 793.038C270.588 703.317 144.526 602.706 58.5238 525.942C-18.1982 455.333 -73.8923 389.533 -116.65 319.019C-168.876 231.014 -191.505 148.894 -187.807 60.6775L-186.764 60.7647C-190.468 148.707 -167.897 230.664 -115.73 318.506C-72.972 389.02 -17.447 454.605 59.2751 525.214C180.737 633.537 382.488 789.769 729.903 895.335C1066.34 984.319 1241.48 929.186 1335.61 899.507C1392.55 877.418 1432.42 859.035 1454.24 844.709C1455.21 844.085 1455.81 843.689 1456.3 843.514L1456.7 844.382C1456.37 844.499 1455.78 844.895 1454.81 845.518C1432.98 859.844 1392.95 878.285 1336.02 900.375C1293.03 913.895 1221.1 936.47 1120.01 942.798C1004.63 949.816 873.267 934.224 729.647 896.162C627.814 865.422 538.539 830.195 460.068 793.038Z" fill="#6A809B"/>
<path d="M409.82 766.671C277.892 704.201 160.71 626.9 55.8396 533.614C-19.1406 465.05 -75.8893 396.04 -117.721 322.712C-167.786 233.292 -189.367 148.958 -185.903 57.5147L-184.86 57.6019C-188.383 148.882 -166.808 232.942 -116.854 322.31C-75.0215 395.638 -18.331 464.484 56.5385 532.996C241.096 697.211 463.973 811.688 737.858 883.114C1073.9 959.178 1247.74 914.262 1341 890.135C1379.52 877.752 1431.01 859.996 1457.18 846.234C1458.1 845.722 1458.64 845.436 1458.96 845.32L1459.31 846.298C1459.1 846.467 1458.45 846.7 1457.69 847.155C1431.53 860.916 1380.03 878.672 1341.35 891.113C1247.92 915.299 1073.98 960.163 737.66 884.104C619.116 853.174 510.205 814.204 409.82 766.671Z" fill="#6A809B"/>
<path d="M363.44 744.438C351.819 738.935 340.361 733.374 329.118 727.644C226.945 675.877 134.072 613.338 53.103 541.396C-21.3645 473.752 -77.6474 403.472 -118.956 326.463C-166.009 236.978 -187.253 147.926 -183.836 54.293L-182.793 54.3802C-186.216 147.74 -165.031 236.629 -117.925 326.003C-76.6748 402.849 -20.5025 473.076 53.8543 540.668C231.31 698.132 464.084 809.166 745.813 870.892C1080.87 934.16 1253.67 899.455 1346.5 880.814C1400.43 867.06 1438.49 855.947 1459.73 847.713C1460.87 847.305 1461.41 847.02 1461.68 847.014L1461.87 848.051C1461.71 848.109 1461.06 848.342 1460.02 848.803C1438.78 857.036 1400.73 868.149 1346.63 881.961C1253.8 900.602 1080.84 935.365 745.51 872.104C605.991 841.404 477.66 798.522 363.44 744.438Z" fill="#6A809B"/>
<path d="M324.074 727.424C220.369 678.318 128.877 618.872 49.9297 549.242C-27.0954 477.271 -82.9126 405.721 -120.516 330.331C-163.329 244.48 -183.361 153.157 -181.768 51.0716L-180.673 51.0482C-183.576 242.887 -112.201 396.324 50.7334 548.403C225.154 702.263 461.782 806.586 753.82 858.56C1086.96 908.996 1258.01 884.846 1349.86 871.704L1351.88 871.441C1423.91 858.121 1451.15 851.512 1460.2 849.292C1463.25 848.569 1464.01 848.388 1464.45 848.324L1464.36 849.367L1464.35 848.819L1464.36 849.367C1464.09 849.373 1462.67 849.787 1460.44 850.218C1451.44 852.328 1424.15 859.048 1352.01 872.315L1349.94 872.688C1257.97 885.778 1086.88 910.039 753.511 859.498C593.338 831.212 449.804 786.958 324.074 727.424Z" fill="#6A809B"/>
<path d="M290.434 714.34C197.907 670.528 116.254 617.773 47.3562 556.966C-28.7542 486.783 -84.0532 413.853 -121.424 333.966C-162.455 246.927 -181.497 153.226 -179.701 47.8504L-178.606 47.827C-181.909 249.096 -109.921 410.682 47.9968 556.186C219.452 707.151 459.551 804.717 761.612 846.397C1090.54 884.269 1259.67 870.458 1350.5 862.926L1357.28 862.342C1396.62 857.939 1422.03 854.93 1438.86 852.871C1464.38 849.915 1466.67 849.646 1467.44 850.013L1466.86 850.957L1467.24 850.456L1466.97 851.009C1466.15 850.753 1458.82 851.622 1439.15 853.961C1422.38 855.908 1396.97 858.918 1357.57 863.432L1350.68 863.963C1259.86 871.495 1090.73 885.306 761.635 847.492C602.092 825.602 457.749 787.062 332.416 733.271C318.208 727.221 304.158 720.839 290.434 714.34Z" fill="#6A809B"/>
<path d="M261.192 704.559C178.405 665.359 105.863 618.544 44.6196 564.749C-108.731 425.337 -181.448 255.276 -177.634 44.6292L-176.428 44.6582C-180.196 254.921 -107.537 424.819 45.4816 564.073C212.294 710.536 462.603 803.994 769.625 834.339C1087.27 859.416 1248.68 855.904 1345.04 853.84C1351.23 853.653 1357.09 853.582 1362.84 853.459C1469.4 849.314 1470.04 850.834 1470.33 851.924L1469.3 852.384C1469.25 852.495 1469.36 852.547 1469.36 852.547C1466.71 851.289 1430.95 852.11 1362.81 854.665C1357.17 854.84 1351.31 854.911 1345.02 855.046C1248.65 857.11 1087.24 860.622 769.433 835.603C607.386 819.573 460.853 786.229 334.181 736.41C309.04 726.267 284.767 715.722 261.192 704.559Z" fill="#6A809B"/>
<path d="M236.623 698.074C163.022 663.223 98.1456 621.393 42.1628 572.799C-107.494 439.608 -176.57 270.729 -175.514 41.297L-174.419 41.2735C-175.481 270.431 -106.358 438.926 43.0189 571.849C209.802 716.944 456.901 801.158 777.358 822.012C1003.36 831.742 1151.64 836.783 1249.66 840.107C1298.99 841.789 1337.91 843.147 1368.07 844.418C1432.87 846.919 1470.07 849.902 1472.65 852.75C1472.93 853.018 1472.94 853.292 1472.89 853.402L1471.68 853.373C1471.63 853.484 1471.74 853.537 1471.74 853.537C1471.12 852.838 1463.48 849.222 1367.93 845.571C1337.77 844.3 1298.85 842.942 1249.52 841.26C1151.5 837.937 1003.22 832.896 777.108 823.113C563.891 809.274 382.939 767.356 236.623 698.074Z" fill="#6A809B"/>
<path d="M215.274 693.656C148.425 662.002 89.6069 624.26 39.5369 580.634C-36.0022 514.108 -89.6882 437.2 -124.795 345.377C-158.51 257.195 -174.356 156.744 -173.446 38.0758L-172.241 38.1047C-174.275 278.184 -106.77 450.384 40.2299 579.742C205.394 723.393 456.015 800.739 785.04 809.797C1123.24 812.632 1282.71 825.814 1373.36 835.541C1461.28 845.873 1473.95 851.737 1475.3 853.734C1475.53 854.113 1475.48 854.497 1475.54 854.661L1474.33 854.358C1474.16 854.142 1471.29 848.178 1373.27 836.583C1282.73 826.909 1123.21 813.564 785.063 810.892C615.865 806.244 465.385 782.955 337.525 741.652C294.339 727.842 253.569 711.789 215.274 693.656Z" fill="#6A809B"/>
<path d="M196.541 691.153C135.779 662.382 82.4021 628.029 36.8003 588.416C-38.4999 522.816 -91.7201 444.638 -126.03 349.128C-157.846 260.084 -172.702 157.256 -171.216 34.7957L-170.01 34.8247C-172.957 285.989 -106.967 461.672 37.604 587.577C199.249 728.07 460.343 800.756 792.831 797.633C1154.7 787.965 1311.62 815.116 1378.7 826.826C1463.97 843.897 1476.53 852.01 1478.01 854.607C1478.29 855.149 1478.19 855.644 1478.09 855.865L1476.93 855.452C1476.93 855.452 1476.87 855.289 1476.92 855.178C1476.12 853.716 1467.79 845.842 1378.56 827.979C1311.59 816.321 1154.68 789.171 792.965 798.781C621.601 800.424 469.036 782.109 339.395 744.57C288.135 729.782 240.48 711.959 196.541 691.153Z" fill="#6A809B"/>
<path d="M180.418 690.294C124.969 664.038 76.147 632.655 34.2851 596.303C-108.579 473.374 -173.061 293.934 -169.096 31.4639L-167.891 31.4929C-171.809 293.579 -107.443 472.693 34.9781 595.412C195.895 735.154 460.675 800.913 800.623 785.47C1157.64 763.746 1310.54 800.513 1384.05 818.111C1466.77 841.701 1479.15 851.899 1480.7 855.207C1480.99 856.023 1480.9 856.518 1480.74 856.85L1479.63 856.326C1479.68 856.215 1479.68 855.941 1479.56 855.615C1478.76 853.879 1470.49 843.868 1383.8 819.212C1310.45 801.556 1157.55 764.788 800.757 786.618C548.861 798.093 338.134 764.974 180.418 690.294Z" fill="#6A809B"/>
<path d="M166.02 690.657C114.887 666.445 70.0085 637.607 31.4963 604.196C-43.7162 540.128 -95.9001 459.189 -128.166 356.788C-156.674 266.194 -169.329 158.717 -166.813 28.0736L-165.608 28.1025C-170.829 300.953 -107.919 483.713 32.3524 603.246C192.769 742.616 461.124 801.397 808.304 773.255C1163.14 739.526 1315.95 786.813 1389.34 809.507C1469.85 839.499 1481.89 851.84 1483.29 855.754C1483.58 856.57 1483.6 857.391 1483.23 857.892L1482.17 857.257C1482.33 856.925 1482.32 856.651 1482.15 856.162C1481.1 853.227 1471.15 841.334 1388.93 810.666C1315.64 788.024 1162.95 740.79 808.439 774.402C632.906 788.569 476.288 780.53 342.856 750.138C277.739 735.428 218.592 715.551 166.02 690.657Z" fill="#6A809B"/>
<path d="M153.398 692.132C106.138 669.755 64.5923 643.036 28.8705 612.03C-46.3827 548.621 -98.1008 466.412 -129.237 360.481C-156.056 269.467 -167.721 159.614 -164.583 24.7938L-163.267 24.8751C-169.82 312.27 -110.346 493.132 29.7266 611.081C187.795 748.255 467.042 801.489 815.986 761.039C966.483 741.656 1097.07 738.859 1204.01 752.509C1298.54 764.617 1358.63 787.377 1394.58 801.014C1473.04 837.349 1484.57 851.618 1485.98 856.08C1486.28 857.169 1486.18 857.938 1485.82 858.713L1484.65 858.026C1484.86 857.583 1484.96 857.088 1484.73 856.435C1483.38 852.137 1472.02 838.357 1394.12 802.284C1315.69 772.466 1169.51 716.93 816.178 762.349C638.701 782.913 480.162 779.79 344.674 753.166C273.325 739.028 209.401 718.651 153.398 692.132Z" fill="#6A809B"/>
<path d="M142.051 694.347C98.2231 673.594 59.4558 648.734 26.1923 619.976C-49.1016 557.225 -100.412 473.582 -130.413 364.396C-155.957 271.547 -166.014 162.59 -162.3 21.4034L-160.984 21.4848C-168.892 319.754 -110.822 504.152 27.0484 619.026C185.228 756.253 468.154 802.287 823.614 748.934C973.424 722.993 1096.59 718.985 1211.17 736.251C1305.43 751.213 1363.97 775.815 1399.72 793.016C1474.15 830.697 1486.55 851.74 1488.4 858.986L1487.15 859.342C1485.24 852.207 1473.02 831.653 1399.15 794.233C1363.5 777.084 1305.02 752.372 1210.98 737.515C1096.56 720.191 973.505 724.251 823.807 750.244C542.716 792.473 306.851 772.382 142.051 694.347Z" fill="#6A809B"/>
<path d="M131.876 697.523C90.9253 678.133 54.7678 654.914 23.5665 627.81C-51.9894 565.613 -102.671 480.642 -131.485 368.089C-155.385 275.205 -164.452 163.871 -160.017 18.013L-158.701 18.0944C-165.362 239.046 -148.773 484.15 24.4226 626.861C183.044 764.297 469.599 803.242 831.185 736.666C981.593 705.453 1104.62 700.024 1218.37 719.609C1311.58 736.511 1369.43 764.851 1404.86 784.744C1473.82 825.391 1488.34 848.799 1490.76 859.155L1490.87 859.481L1489.62 859.836L1489.51 859.51C1487.1 849.428 1472.74 826.236 1404.17 785.909C1368.86 766.069 1311.12 737.78 1218.18 720.873C1104.54 701.341 981.675 706.711 831.43 737.866C650.558 771.32 487.909 778.309 348.135 758.734C265.666 747.19 193.413 726.662 131.876 697.523Z" fill="#6A809B"/>
<path d="M122.645 701.281C84.2393 683.096 50.2488 661.31 20.9466 635.919C-54.7607 574.327 -104.924 487.976 -132.55 372.055C-154.814 278.862 -162.722 165.368 -157.624 14.6749L-156.307 14.7562C-164.121 243.292 -149.075 495.659 21.7445 634.806C99.6019 702.158 210.005 744.273 350.028 760.172C491.916 776.141 656.376 764.183 838.703 724.508C989.6 687.972 1112.54 681.285 1225.63 703.129C1317.9 722.023 1375.06 754.104 1410.06 776.635C1459.47 809.922 1489.02 839.362 1493.23 859.376C1493.23 859.649 1493.29 859.812 1493.35 859.975L1492.1 860.331C1492.04 860.168 1492.03 859.894 1491.97 859.731C1487.88 840.044 1458.56 810.982 1409.48 777.852C1374.6 755.374 1317.49 723.456 1225.5 704.556C1112.68 682.706 989.851 689.445 839.117 725.924C656.627 765.657 492.003 777.673 350.005 761.652C262.364 751.587 186.395 731.468 122.645 701.281Z" fill="#6A809B"/>
<path d="M113.966 705.302C77.8849 688.217 45.84 667.76 18.1573 643.812C-150.232 508.119 -164.76 259.52 -155.399 11.1219L-154.083 11.2033C-163.397 259.217 -148.934 507.379 19.0658 642.752C176.791 779.221 478.226 804.481 846.221 712.351C997.665 670.654 1120.47 662.546 1232.79 686.872C1323.95 707.816 1380.59 743.578 1415.14 768.748C1449.17 794.477 1490.71 831.219 1495.59 859.545C1495.65 859.981 1495.66 860.255 1495.82 860.471L1494.46 860.774C1494.46 860.5 1494.34 860.174 1494.28 859.737C1489.46 831.849 1448.2 795.374 1414.51 769.802C1380.01 744.796 1323.48 709.086 1232.6 688.136C1120.55 663.804 997.968 672.017 846.687 713.656C542.768 789.788 283.967 785.8 113.966 705.302Z" fill="#6A809B"/>
<path d="M105.287 709.322C71.3092 693.233 41.2624 673.992 15.5895 651.809C-60.537 591.103 -109.827 502.049 -134.961 379.721C-159.675 259.082 -157.557 117.546 -153.117 7.73118L-151.637 7.75427C-163.926 303.543 -140.043 526.086 16.498 650.749C93.4059 717.245 210.058 757.035 353.599 765.793C498.182 774.638 671.122 751.926 853.739 700.194C1005.78 653.225 1128.5 643.858 1239.95 670.613C1330.27 693.603 1386.23 733.104 1420.4 760.802C1453.48 788.797 1493.83 828.632 1498.05 859.491C1498.17 860.091 1498.24 860.528 1498.24 860.802L1496.88 861.105C1496.76 860.779 1496.7 860.342 1496.63 859.631C1492.47 829.209 1452.35 789.752 1419.49 761.862C1385.43 734.217 1329.64 694.931 1239.59 671.936C1128.37 645.286 1005.92 654.646 854.042 701.557C671.315 753.236 498.264 775.896 353.518 767.109C257.478 761.333 173.465 741.605 105.287 709.322Z" fill="#6A809B"/>
<path d="M97.9433 714.245C65.8468 699.047 37.3553 680.814 12.9116 659.755C-63.5876 599.549 -112.36 509.115 -136.084 383.525C-158.742 264.266 -156.14 124.856 -150.67 4.28265L-149.191 4.30574C-154.608 124.768 -157.157 264.068 -134.558 383.164C-110.892 508.591 -62.3472 598.646 13.8201 658.695C171.259 794.622 488 805.586 861.146 687.984C1061.59 619.491 1177.36 635.965 1247.1 654.355C1336.43 679.448 1391.75 722.578 1425.6 752.967C1472.66 796.931 1497.8 832.546 1500.51 859.165C1500.58 859.875 1500.7 860.475 1500.71 860.749L1499.34 861.052C1499.28 860.615 1499.16 860.015 1499.14 859.194C1495.81 826.454 1456.88 783.903 1424.63 753.864C1390.95 723.691 1335.86 680.665 1246.75 655.678C1177.23 637.392 1061.73 620.913 861.665 689.178C677.599 747.405 502.412 775.15 355.277 769.975C254.957 766.372 167.781 747.314 97.9433 714.245Z" fill="#6A809B"/>
<path d="M91.6474 719.529C61.3216 705.17 33.8379 687.956 9.80216 668.039C-66.9654 605.538 -116.588 511.178 -137.586 387.556C-157.587 274.704 -152.999 141.113 -148.59 11.9074L-148.225 0.834495L-146.745 0.857584L-147.111 11.9305C-151.467 141.025 -156.003 274.506 -136.113 387.306C-115.068 510.543 -65.7248 604.635 10.8738 666.92C93.1232 734.726 209.513 769.92 356.734 771.478C505.056 773.286 682.048 740.299 868.612 675.938C1069.79 600.747 1184.93 618.548 1254.1 638.43C1342.6 665.567 1397.23 712.437 1430.69 745.353C1476.73 792.353 1500.99 830.67 1502.86 859.06C1502.99 859.934 1503.06 860.644 1503.12 861.081L1501.71 861.495C1501.53 861.006 1501.57 860.347 1501.44 859.2C1499.53 831.195 1475.38 793.203 1429.62 746.472C1396.38 713.66 1341.92 667.005 1253.64 639.974C1184.74 620.086 1069.82 602.389 868.973 677.464C682.462 741.714 505.306 774.76 356.711 772.957C283.348 772.228 216.647 762.865 158.257 745.108C134.712 737.889 112.455 729.382 91.6474 719.529Z" fill="#6A809B"/>
<path d="M84.9149 724.877C56.1386 711.251 30.0996 694.992 7.18236 676.147C-69.9113 613.763 -119.016 518.022 -138.815 391.581C-156.607 282.078 -151.698 153.245 -147.026 28.6354C-146.591 18.2731 -146.266 7.85843 -145.831 -2.50388L-144.352 -2.48079C-144.787 7.88152 -145.112 18.2962 -145.436 28.7109C-150.166 153.158 -154.965 282.043 -137.178 391.272C-117.659 517.445 -68.7814 612.807 8.14329 674.976C90.8878 742.881 208.826 776.234 358.493 774.343C509.424 772.644 688.443 734.519 876.078 663.891C1077.88 581.949 1192.55 601.02 1261.32 622.609C1348.94 651.901 1402.93 702.399 1435.9 737.792C1479.22 785.945 1494.42 817.938 1498.94 829.564C1504.32 842.814 1504.54 850.369 1504.7 855.46C1504.81 857.813 1504.9 859.619 1505.53 860.865L1504.12 861.553C1503.37 859.98 1503.28 858.174 1503.17 855.547C1502.95 850.567 1502.79 843.176 1497.42 830.199C1492.96 818.736 1477.82 786.906 1434.67 738.969C1401.81 703.629 1347.98 653.345 1260.64 624.047C1192.2 602.616 1077.8 583.539 876.491 665.306C688.746 735.882 509.564 774.065 358.36 775.77C283.937 776.707 216.17 768.736 157.087 751.87C131.457 744.477 107.382 735.516 84.9149 724.877Z" fill="#6A809B"/>
<path d="M78.4617 730.493C51.1243 717.549 26.3611 702.029 4.45162 684.203C-73.1313 621.993 -121.665 524.762 -139.938 395.385C-155.809 288.689 -150.485 163.846 -145.458 43.0633C-144.767 26.7248 -144.024 10.2755 -143.443 -6.11543L-141.964 -6.09234C-142.655 10.2462 -143.287 26.7478 -143.978 43.0864C-149.116 163.817 -154.387 288.549 -138.576 395.082C-120.256 524.074 -71.9491 620.927 5.3543 682.869C87.4754 749.801 210.161 782.286 360.136 776.883C513.676 771.677 694.611 728.362 883.316 651.466C1085.85 563.099 1199.9 583.498 1268.1 606.578C1354.99 637.967 1408.3 692.205 1440.83 730.237C1483.96 782.228 1498.15 815.777 1502.19 827.851C1506.98 841.498 1507.04 849.384 1506.98 854.644C1507.04 857.382 1506.97 859.246 1507.66 860.655L1506.25 861.343C1505.34 859.555 1505.35 857.528 1505.34 854.679C1505.34 849.53 1505.34 841.807 1500.56 828.434C1496.47 816.47 1482.34 783.085 1439.49 731.361C1407.01 693.493 1353.87 639.47 1267.48 608.18C1199.5 585.205 1085.73 564.799 883.736 653.155C695.082 729.94 513.985 773.314 360.171 778.525C284.636 781.238 215.857 774.55 155.97 758.523C128.261 751.228 102.368 741.813 78.4617 730.493Z" fill="#6A809B"/>
<path d="M72.3408 736.266C46.3315 723.951 22.6809 709.229 1.72102 692.259C-38.6258 660.147 -71.2446 618.009 -95.1216 567.139C-117.501 519.688 -133.009 463.161 -141.225 399.247C-155.4 294.98 -149.517 173.247 -143.93 55.5747C-142.855 34.1336 -141.851 11.9819 -140.945 -9.67473L-139.355 -9.59923C-140.261 12.0574 -141.317 34.3197 -142.34 55.6501C-147.874 173.212 -153.705 294.834 -139.641 399.048C-122.794 530.866 -74.8952 629.152 2.73435 690.977C85.403 757.898 209.585 788.652 361.896 779.748C515.855 771.082 703.661 721.266 890.619 639.477C1093.72 544.196 1207.31 566.14 1275.05 590.763C1361.05 624.307 1413.73 682.175 1445.88 722.734C1488.65 778.622 1501.89 813.615 1505.5 826.027C1509.96 840.064 1509.59 848.289 1509.37 853.607C1509.27 856.677 1509.2 858.541 1509.95 860.113L1508.54 860.801C1507.57 858.85 1507.68 856.601 1507.78 853.531C1508 848.213 1508.26 840.21 1504.08 826.441C1500.47 814.029 1487.24 779.309 1444.64 723.637C1412.55 683.241 1360.04 625.589 1274.42 592.091C1206.95 567.462 1093.81 545.728 891.137 640.671C704.133 722.844 516.164 772.719 361.931 781.391C285.284 785.881 215.601 780.526 154.859 765.448C125.227 757.921 97.6861 748.268 72.3408 736.266Z" fill="#6A809B"/>
<path d="M66.109 741.987C41.5385 730.353 19.1112 716.481 -0.899137 700.367C-41.409 668.313 -74.092 625.739 -97.7652 574.152C-119.83 526.037 -134.866 468.514 -142.401 403.161C-155.003 300.723 -148.624 181.664 -142.49 66.5541C-141.078 40.3949 -139.631 13.3038 -138.447 -13.234L-136.857 -13.1585C-138.041 13.3793 -139.488 40.4704 -140.899 66.6297C-147.034 181.739 -153.413 300.798 -140.869 403.074C-125.386 537.769 -78.0046 637.436 0.0617695 699.196C83.2255 766.216 208.957 795.13 363.655 782.614C520.386 770.383 710.108 715.376 897.921 627.489C984.745 584.053 1060.32 560.085 1128.77 554.017C1183.17 549.292 1233.28 556.216 1281.95 575.332C1367.18 611.084 1419.22 672.58 1450.98 715.667C1493.4 775.452 1505.63 811.727 1509.02 824.582C1513.06 838.957 1512.31 847.409 1511.88 852.896C1511.56 856.134 1511.5 858.272 1512.36 859.897L1510.95 860.585C1509.91 858.47 1509.97 856.059 1510.34 852.71C1510.77 847.223 1511.41 838.992 1507.55 824.833C1504.26 812.03 1492.1 775.919 1449.79 716.46C1418.2 673.588 1366.33 612.307 1281.43 576.712C1214.47 550.429 1101.85 527.315 898.661 628.788C710.685 716.733 520.637 771.856 363.795 784.035C245.793 793.738 144.58 779.144 66.109 741.987Z" fill="#6A809B"/>
<path d="M60.5473 748.296C36.9729 737.134 15.6 723.897 -3.57144 708.586C-44.3551 676.538 -76.9915 633.58 -100.409 581.166C-122.27 532.334 -136.724 473.867 -143.63 407.186C-154.664 306.303 -147.744 189.533 -141.073 76.4387C-139.318 45.8351 -137.313 14.1307 -135.89 -16.6301L-134.3 -16.5546C-135.775 14.3168 -137.617 45.963 -139.535 76.6248C-146.264 189.556 -153.074 306.379 -141.935 407.041C-127.924 544.561 -80.9506 645.661 -2.55811 707.305C81.2639 774.365 208.434 801.385 365.415 785.479C524.807 769.631 716.497 709.323 905.224 615.501C992.425 569.263 1068.07 543.705 1136.41 537.311C1190.7 532.259 1240.54 539.737 1288.85 559.901C1373.3 597.861 1424.71 662.986 1456.09 708.601C1498.21 772.173 1509.53 809.782 1512.39 822.922C1515.93 837.745 1515.02 846.255 1514.32 852.022C1513.9 855.482 1513.68 857.678 1514.7 859.518L1513.24 860.317C1512.04 857.987 1512.31 855.407 1512.79 851.836C1513.38 846.291 1514.4 837.833 1510.86 823.283C1508 810.143 1496.8 772.86 1454.74 709.452C1423.53 664.052 1372.29 599.143 1288.16 561.34C1221.67 533.513 1109.62 508.908 905.911 616.91C717.132 710.843 525.227 771.32 365.561 787.174C244.052 799.418 140.235 786.029 60.5473 748.296Z" fill="#6A809B"/>
<path d="M55.2011 754.436C32.7335 743.798 12.2519 731.254 -6.30208 716.642C-87.2343 654.067 -133.917 551.208 -145.079 411.106C-152.722 325.379 -147.062 231.588 -140.919 132.199C-137.886 82.0123 -134.614 30.1773 -133.392 -20.1895L-131.802 -20.1141C-133.024 30.2528 -136.237 82.2509 -139.271 132.437C-145.361 231.716 -151.132 325.454 -143.274 411.013C-132.175 550.678 -85.72 653.158 -5.17806 715.413C80.071 782.607 208.901 807.839 367.39 788.176C526.875 768.984 715.308 704.966 912.41 603.186C999.99 554.146 1075.71 526.998 1143.93 520.278C1197.94 514.959 1247.62 522.768 1295.69 544.307C1379.43 584.638 1430.26 653.281 1461.14 701.372C1490.53 748.892 1510.42 792.453 1515.74 820.987C1518.86 836.149 1517.57 844.886 1516.71 850.711C1516.07 854.34 1515.74 856.757 1516.88 858.65L1515.41 859.448C1514.1 857.066 1514.48 854.264 1515.06 850.472C1515.87 844.758 1517.22 836.184 1514.1 821.296C1511.68 807.818 1501.27 769.423 1459.68 702.17C1428.85 654.243 1378.2 585.815 1294.9 545.694C1228.8 516.16 1117.32 490.063 913.097 604.595C715.833 706.434 527.126 770.457 367.477 789.708C242.917 805.248 136.549 792.956 55.2011 754.436Z" fill="#6A809B"/>
<path d="M50.1404 761.118C28.6689 750.951 8.90955 738.885 -8.86377 724.914C-90.4542 662.297 -136.671 558.169 -146.145 415.073C-152.826 330.749 -146.473 238.641 -139.741 141.157C-135.975 86.8467 -132.138 30.6721 -130.783 -23.6964L-129.193 -23.6209C-130.548 30.7476 -134.384 86.9222 -138.204 141.343C-144.882 238.717 -151.236 330.825 -144.502 415.038C-135.04 557.586 -89.0506 661.336 -7.85043 723.632C78.0044 790.978 208.436 814.258 369.149 791.041C530.585 768.302 720.882 699.205 919.549 591.256C1007.4 539.362 1083.31 510.676 1151.3 503.578C1205.19 497.932 1254.5 506.243 1302.37 529.045C1385.45 571.636 1435.64 643.908 1466.14 694.527C1495.32 744.791 1514.59 790.227 1519.05 819.437C1521.9 834.878 1520.12 843.791 1519.09 849.674C1518.41 853.413 1517.86 856 1519.05 858.056L1517.59 858.854C1516.11 856.256 1516.6 853.507 1517.44 849.435C1518.47 843.552 1520.15 834.861 1517.41 819.746C1512.96 790.81 1493.75 745.536 1464.74 695.488C1434.3 645.033 1384.39 573.028 1301.75 530.647C1301.53 530.543 1301.2 530.385 1300.97 530.281C1229.81 496.583 1122.28 473.579 920.458 592.77C721.517 700.725 530.946 769.828 369.348 792.626C241.508 811.085 132.758 800.103 50.1404 761.118Z" fill="#6A809B"/>
<path d="M45.2425 767.742C24.6564 757.994 5.73018 746.458 -11.4839 733.022C-93.6743 670.528 -139.431 564.856 -147.321 418.988C-152.884 335.735 -146.006 245.095 -138.639 149.131C-134.244 90.9181 -129.616 30.7826 -128.122 -27.3137L-126.531 -27.2382C-128.026 30.8581 -132.543 91.0461 -137.049 149.207C-144.416 245.171 -151.241 335.7 -145.626 418.842C-137.8 564.274 -92.3289 669.404 -10.5813 731.688C76.0425 799.127 207.86 820.625 370.85 793.744C534.4 767.399 726.56 693.222 926.63 579.163C1014.86 524.467 1090.68 494.249 1158.66 486.877C1213.1 480.946 1260.88 489.618 1309 513.895C1391.37 558.856 1440.87 634.594 1470.98 687.741C1499.83 740.695 1518.48 788.007 1522.19 817.672C1524.61 833.451 1522.61 842.532 1521.31 848.421C1520.47 852.493 1519.86 854.916 1521.12 857.135L1519.65 857.933C1518.12 855.173 1518.66 852.313 1519.61 848.02C1520.9 842.131 1522.8 833.271 1520.49 817.818C1516.8 788.427 1498.2 741.278 1469.41 688.487C1439.46 635.555 1390.02 559.98 1308.1 515.229C1237.38 479.44 1130.31 454.618 927.37 580.461C727.306 694.795 534.82 769.088 371.159 795.381C240.047 817.032 128.915 807.361 45.2425 767.742Z" fill="#6A809B"/>
<path d="M40.4029 774.528C20.5916 765.147 2.38768 754.088 -14.2671 741.189C-97.1157 678.654 -142.354 571.602 -148.66 422.961C-153.326 340.675 -145.766 251.17 -137.881 156.401C-132.689 94.5001 -127.321 30.5143 -125.734 -30.9255L-123.981 -30.9083C-125.621 30.6422 -130.988 94.6279 -136.18 156.528C-144.176 251.246 -151.573 340.692 -147.018 422.925C-140.723 571.019 -95.7121 677.693 -13.2538 739.907C74.1388 807.439 207.505 827.096 372.61 796.609C538.11 766.717 732.186 687.35 933.659 567.18C1022.15 509.631 1098.11 477.986 1165.98 470.287C1220.24 464.14 1267.82 473.255 1315.58 498.854C1397.28 546.075 1446.26 625.495 1475.88 681.117C1504.4 736.763 1522.55 786.003 1525.44 815.959C1527.48 831.965 1525.04 841.111 1523.53 847.169C1522.47 851.409 1521.81 853.943 1523.12 856.325L1521.66 857.123C1520.07 854.2 1520.77 851.281 1521.94 846.819C1523.4 840.872 1525.73 831.948 1523.74 816.105C1520.8 786.26 1502.94 737.287 1474.47 681.805C1444.91 626.346 1396.16 547.305 1314.79 500.241C1244.58 462.523 1138.03 436.321 934.509 568.531C835.043 627.795 736.361 677.675 640.898 716.749C545.11 755.94 454.877 783.399 372.808 798.194C238.696 823.032 125.293 814.724 40.4029 774.528Z" fill="#6A809B"/>
<path d="M35.2841 781.047C16.3582 772.085 -1.01278 761.556 -16.887 749.297C-100.394 686.722 -145.114 578.289 -149.894 426.712C-153.558 345.172 -145.486 256.588 -136.919 162.953C-130.923 97.6394 -124.758 29.9664 -123.02 -34.6537L-121.267 -34.6365C-122.999 30.2574 -129.164 97.9304 -135.16 163.244C-143.727 256.879 -151.747 345.352 -148.083 426.892C-143.373 577.759 -98.8795 685.813 -15.763 748.068C72.2354 815.751 207.203 833.457 374.532 799.417C539.747 766.408 740.84 679.66 940.962 555.192C1029.78 494.951 1105.81 461.716 1173.57 453.692C1227.66 447.329 1275.03 456.887 1322.55 483.86C1403.64 533.505 1451.87 616.501 1481.16 674.54C1509.47 732.93 1526.94 783.882 1528.96 814.241C1530.57 830.585 1527.97 839.788 1526.19 845.852C1524.96 850.151 1524.14 852.743 1525.51 855.288L1524.05 856.086C1522.29 852.947 1523.21 849.86 1524.53 845.34C1526.27 839.386 1528.92 830.346 1527.32 814.276C1525.25 784.028 1507.89 733.402 1479.64 675.176C1450.41 617.299 1402.3 534.629 1321.65 485.194C1252 445.712 1145.74 418.025 941.865 556.432C741.639 681.122 540.271 767.875 374.894 800.943C291.503 817.957 215.56 822.103 148.924 813.178C106.571 807.621 68.5981 796.821 35.2841 781.047Z" fill="#6A809B"/>
</g>
<defs>
<linearGradient id="paint0_linear" x1="151" y1="26.0903" x2="932.957" y2="981.541" gradientUnits="userSpaceOnUse">
<stop stop-color="#231F1F"/>
<stop offset="1" stop-color="#455B75"/>
</linearGradient>
</defs>
</svg>
