<svg width="267" height="40" viewBox="0 0 267 40" fill="none" xmlns="http://www.w3.org/2000/svg">
<path d="M264.982 34.4394C262.254 37.9779 257.851 39.9497 253.016 39.9497H217.82C215.497 39.9497 213.471 38.0589 213.471 35.6279V4.40284C213.471 1.97182 215.416 0 217.82 0H253.016C257.824 0 262.254 2.05286 264.982 5.59134C265.603 6.37466 266.143 7.32006 266.143 8.58959C266.143 11.0206 264.198 12.9924 261.794 12.9924C260.012 12.9924 258.688 11.7229 257.986 10.7235C256.365 8.45453 252.313 7.10397 248.829 7.10397H226.599C224.114 7.10397 222.088 9.15683 222.088 11.6689C222.088 14.1809 224.195 16.2068 226.68 16.2068H249.855C251.881 16.2068 254.366 17.6114 254.366 20.0694C254.366 22.5004 251.8 23.851 249.855 23.851H226.599C224.114 23.851 222.088 25.9038 222.088 28.4159C222.088 30.9279 224.168 32.9808 226.653 32.9808H248.883C252.286 32.9808 256.338 31.6302 257.959 29.3613C258.661 28.3348 259.985 27.0923 261.767 27.0923C264.171 27.0923 266.116 29.0641 266.116 31.4952C266.143 32.7107 265.603 33.629 264.982 34.4394Z" fill="#52CAF5"/>
<path d="M43.9473 39.9227H11.5608C5.21318 39.9227 0 34.6555 0 28.2268V4.40284C0 1.97182 1.94481 0 4.34882 0C6.75282 0 8.69763 1.97182 8.69763 4.40284V26.417C8.69763 29.9555 11.7229 32.9538 15.2884 32.9538H40.3008C43.8663 32.9538 46.8916 29.9555 46.8916 26.417V4.40284C46.8916 1.97182 48.8364 0 51.2404 0C53.6444 0 55.5082 1.97182 55.5082 4.40284V28.2268C55.5352 34.6555 50.322 39.9227 43.9473 39.9227Z" fill="white"/>
<path d="M112.773 24.2021C112.314 24.4452 111.989 24.9854 111.989 25.5527C111.989 25.8768 112.233 26.255 112.53 26.5791L118.418 32.3865C122.551 36.4112 116.473 42.6778 112.449 38.7612L100.51 27.1193C99.5102 26.0929 98.1866 25.5527 96.701 25.5527H77.388C74.9029 25.5527 72.9581 27.5785 72.9581 30.1176V35.5468C72.9581 37.9779 71.0133 39.9497 68.6093 39.9497C66.2053 39.9497 64.2605 37.9779 64.2605 35.5468V4.40284C64.2875 1.97182 66.2053 0 68.6093 0H107.154C114.123 0 119.715 5.67237 119.715 12.7223C119.742 17.7734 116.878 22.0952 112.773 24.2021ZM105.534 7.07696H77.388C74.9029 7.07696 72.9581 9.12981 72.9581 11.6419V13.9918C72.9581 16.5039 74.984 18.5567 77.469 18.5567L105.453 18.4757C108.559 18.4757 111.125 15.9637 111.125 12.8033C111.125 9.67004 108.64 7.07696 105.534 7.07696Z" fill="white"/>
<path d="M171.333 39.9239H131.788C129.465 39.9239 127.52 38.0331 127.52 35.6021V4.48511C127.52 2.0541 129.384 0.0822754 131.788 0.0822754H167.686C173.98 0.0822754 179.247 5.10637 179.247 11.5621C179.247 13.831 178.626 15.8839 177.545 17.6126C177.464 17.7747 177.383 17.9367 177.383 18.0718C177.383 18.3149 177.545 18.612 177.842 18.8551C180.868 20.908 182.812 24.4465 182.812 28.3631C182.839 34.7377 177.626 39.9239 171.333 39.9239ZM166.146 7.0782L140.621 7.15923C138.136 7.15923 136.11 9.21209 136.11 11.7241C136.11 14.2362 138.136 16.208 140.621 16.208H166.146C168.631 16.208 170.63 14.1552 170.63 11.6431C170.63 9.13105 168.631 7.0782 166.146 7.0782ZM169.631 23.9062H140.648C138.163 23.9062 136.137 25.9591 136.137 28.4711C136.137 30.9832 138.163 32.955 140.648 32.955H169.631C172.116 32.955 174.196 30.9021 174.196 28.3901C174.223 25.851 172.116 23.9062 169.631 23.9062Z" fill="white"/>
<path d="M203.396 23.7167H192.159C190.161 23.7167 188.432 21.961 188.432 19.9351C188.432 17.9093 189.972 16.1536 192.078 16.1536H203.315C205.314 16.1536 207.043 17.8013 207.043 19.9351C207.043 21.961 205.503 23.7167 203.396 23.7167Z" fill="white"/>
</svg>
