<svg width="26" height="28" viewBox="0 0 26 28" fill="none" xmlns="http://www.w3.org/2000/svg">
<path fill-rule="evenodd" clip-rule="evenodd" d="M8 11.5H21.75C23.875 11.5 25.5 13.125 25.5 15.25V24C25.5 26.125 23.875 27.75 21.75 27.75H4.25C2.125 27.75 0.5 26.125 0.5 24V15.25C0.5 13.125 2.125 11.5 4.25 11.5H5.5V7.75C5.5 5.75 6.25 3.875 7.75 2.5C9.125 1 11 0.25 13 0.25C16.5 0.25 19.625 2.75 20.375 6.25C20.5 7 20 7.625 19.375 7.75C18.75 7.875 18 7.375 17.875 6.75C17.375 4.375 15.375 2.75 13 2.75C11.625 2.75 10.375 3.25 9.5 4.25C8.5 5.125 8 6.375 8 7.75V11.5ZM21.75 25.25C22.5 25.25 23 24.75 23 24V15.25C23 14.5 22.5 14 21.75 14H4.24999C3.49999 14 2.99999 14.5 2.99999 15.25V24C2.99999 24.75 3.49999 25.25 4.24999 25.25H21.75Z" fill="#231F1F"/>
</svg>
